<svg width="32" height="33" viewBox="0 0 32 33" fill="none" xmlns="http://www.w3.org/2000/svg">
<path d="M16 13.1776C16.5523 13.1776 17 13.6253 17 14.1776V23.1776C17 23.7299 16.5523 24.1776 16 24.1776C15.4477 24.1776 15 23.7299 15 23.1776V14.1776C15 13.6253 15.4477 13.1776 16 13.1776ZM16 11.1776C16.8284 11.1776 17.5 10.506 17.5 9.67758C17.5 8.84915 16.8284 8.17758 16 8.17758C15.1716 8.17758 14.5 8.84915 14.5 9.67758C14.5 10.506 15.1716 11.1776 16 11.1776ZM2 16.1776C2 8.4456 8.26801 2.17758 16 2.17758C23.732 2.17758 30 8.4456 30 16.1776C30 23.9096 23.732 30.1776 16 30.1776C8.26801 30.1776 2 23.9096 2 16.1776ZM16 4.17758C9.37258 4.17758 4 9.55016 4 16.1776C4 22.805 9.37258 28.1776 16 28.1776C22.6274 28.1776 28 22.805 28 16.1776C28 9.55016 22.6274 4.17758 16 4.17758Z" fill="white"/>
</svg>
