<svg width="28" height="29" viewBox="0 0 28 29" fill="none" xmlns="http://www.w3.org/2000/svg">
<path d="M24.8497 3.32732C23.3141 1.79172 20.8244 1.79173 19.2889 3.32734L4.5025 18.1143C4.06211 18.5547 3.74255 19.1011 3.57462 19.7009L2.02779 25.2253C1.95474 25.4862 2.02809 25.7662 2.21968 25.9578C2.41127 26.1494 2.69131 26.2228 2.95223 26.1497L8.47647 24.603C9.07632 24.4351 9.62281 24.1154 10.0633 23.675L24.8497 8.88795C26.3852 7.3524 26.3852 4.86285 24.8497 3.32732ZM20.3496 4.38798C21.2993 3.43818 22.8392 3.43818 23.789 4.38797C24.7387 5.33772 24.7387 6.87755 23.789 7.82731L22.2498 9.36663L18.8104 5.92724L20.3496 4.38798ZM17.7497 6.98792L21.1891 10.4273L9.00259 22.6143C8.74429 22.8726 8.42382 23.0601 8.07205 23.1586L3.83174 24.3458L5.01906 20.1053C5.11754 19.7536 5.30493 19.4332 5.56318 19.175L17.7497 6.98792Z" fill="#212121"/>
</svg>
