<svg width="19" height="19" viewBox="0 0 19 19" fill="none" xmlns="http://www.w3.org/2000/svg">
<path d="M12.4602 5.96733C12.6799 6.187 12.6799 6.54316 12.4602 6.76283L10.0455 9.17758L12.4602 11.5923C12.6799 11.812 12.6799 12.1682 12.4602 12.3878C12.2406 12.6075 11.8844 12.6075 11.6648 12.3878L9.25 9.97308L6.83525 12.3878C6.61558 12.6075 6.25942 12.6075 6.03975 12.3878C5.82008 12.1682 5.82008 11.812 6.03975 11.5923L8.4545 9.17758L6.03975 6.76283C5.82008 6.54316 5.82008 6.187 6.03975 5.96733C6.25942 5.74766 6.61558 5.74766 6.83525 5.96733L9.25 8.38209L11.6648 5.96733C11.8844 5.74766 12.2406 5.74766 12.4602 5.96733ZM18.25 9.17758C18.25 4.20702 14.2206 0.177582 9.25 0.177582C4.27944 0.177582 0.25 4.20702 0.25 9.17758C0.25 14.1481 4.27944 18.1776 9.25 18.1776C14.2206 18.1776 18.25 14.1481 18.25 9.17758ZM1.375 9.17758C1.375 4.82834 4.90076 1.30258 9.25 1.30258C13.5992 1.30258 17.125 4.82834 17.125 9.17758C17.125 13.5268 13.5992 17.0526 9.25 17.0526C4.90076 17.0526 1.375 13.5268 1.375 9.17758Z" fill="#212121"/>
</svg>
