<svg width="44" height="44" viewBox="0 0 44 44" fill="none" xmlns="http://www.w3.org/2000/svg">
<circle cx="22" cy="22" r="22" fill="#D7FBF9"/>
<path d="M27.7542 23.9999C28.9962 23.9999 30.003 25.0068 30.003 26.2488V26.8242C30.003 27.7185 29.6835 28.5833 29.1019 29.2627C27.5326 31.0962 25.1454 32.0011 22 32.0011C18.8541 32.0011 16.4681 31.0959 14.9018 29.2617C14.3221 28.5828 14.0035 27.7193 14.0035 26.8265V26.2488C14.0035 25.0068 15.0104 23.9999 16.2524 23.9999H27.7542ZM27.7542 25.4999H16.2524C15.8388 25.4999 15.5035 25.8352 15.5035 26.2488V26.8265C15.5035 27.3622 15.6946 27.8802 16.0425 28.2876C17.2958 29.7553 19.2617 30.5011 22 30.5011C24.7383 30.5011 26.7059 29.7553 27.9624 28.2873C28.3113 27.8797 28.503 27.3608 28.503 26.8242V26.2488C28.503 25.8352 28.1678 25.4999 27.7542 25.4999ZM22 12.0046C24.7614 12.0046 27 14.2432 27 17.0046C27 19.7661 24.7614 22.0046 22 22.0046C19.2386 22.0046 17 19.7661 17 17.0046C17 14.2432 19.2386 12.0046 22 12.0046ZM22 13.5046C20.067 13.5046 18.5 15.0716 18.5 17.0046C18.5 18.9376 20.067 20.5046 22 20.5046C23.933 20.5046 25.5 18.9376 25.5 17.0046C25.5 15.0716 23.933 13.5046 22 13.5046Z" fill="#757575"/>
</svg>
