<svg width="52" height="53" viewBox="0 0 52 53" fill="none" xmlns="http://www.w3.org/2000/svg">
<path d="M26 21.3026C26.8975 21.3026 27.625 22.0301 27.625 22.9276V37.5526C27.625 38.45 26.8975 39.1776 26 39.1776C25.1025 39.1776 24.375 38.45 24.375 37.5526V22.9276C24.375 22.0301 25.1025 21.3026 26 21.3026ZM26 18.0526C27.3462 18.0526 28.4375 16.9613 28.4375 15.6151C28.4375 14.2689 27.3462 13.1776 26 13.1776C24.6538 13.1776 23.5625 14.2689 23.5625 15.6151C23.5625 16.9613 24.6538 18.0526 26 18.0526ZM3.25 26.1776C3.25 13.6131 13.4355 3.42758 26 3.42758C38.5645 3.42758 48.75 13.6131 48.75 26.1776C48.75 38.7421 38.5645 48.9276 26 48.9276C13.4355 48.9276 3.25 38.7421 3.25 26.1776ZM26 6.67758C15.2304 6.67758 6.5 15.408 6.5 26.1776C6.5 36.9471 15.2304 45.6776 26 45.6776C36.7695 45.6776 45.5 36.9471 45.5 26.1776C45.5 15.408 36.7695 6.67758 26 6.67758Z" fill="#0D7279"/>
</svg>
